<?xml version="1.0" standalone="no"?>
<!DOCTYPE svg PUBLIC "-//W3C//DTD SVG 20010904//EN"
 "http://www.w3.org/TR/2001/REC-SVG-20010904/DTD/svg10.dtd">
<svg version="1.0" xmlns="http://www.w3.org/2000/svg"
 width="560.000000pt" height="560.000000pt" viewBox="0 0 560.000000 560.000000"
 preserveAspectRatio="xMidYMid meet">
<metadata>
Created by potrace 1.14, written by Peter Selinger 2001-2017
</metadata>
<g transform="translate(0.000000,560.000000) scale(0.100000,-0.100000)"
fill="#000000" stroke="none">
<path d="M1127 5054 c-1 -1 -20 -5 -42 -8 -91 -15 -198 -92 -250 -181 -58 -98
-55 13 -54 -2090 0 -1752 2 -1935 17 -1980 9 -27 18 -52 21 -55 4 -3 13 -18
21 -34 34 -67 152 -157 224 -172 70 -15 179 -19 197 -8 4 2 10 0 13 -5 3 -5
21 -6 38 -2 18 4 44 5 58 4 35 -5 122 -3 131 3 4 2 10 0 13 -5 3 -5 21 -6 38
-2 18 4 44 5 58 4 35 -5 122 -3 131 3 4 2 10 0 13 -5 3 -5 21 -6 38 -2 18 4
44 5 58 4 35 -5 122 -3 131 3 4 2 10 0 13 -5 3 -5 21 -6 38 -2 18 4 44 5 58 4
35 -5 122 -3 131 3 4 2 10 0 13 -5 3 -5 21 -6 38 -2 18 4 44 5 58 4 35 -5 122
-3 131 3 4 2 10 0 13 -5 3 -5 21 -6 38 -2 18 4 44 5 58 4 35 -5 122 -3 131 3
4 2 10 0 13 -5 3 -5 21 -6 38 -2 18 4 44 5 58 4 35 -5 122 -3 131 3 4 2 10 0
13 -5 3 -5 21 -6 38 -2 18 4 44 5 58 4 35 -5 122 -3 131 3 4 2 10 0 13 -5 3
-5 21 -6 38 -2 18 4 44 5 58 4 35 -5 122 -3 131 3 4 2 10 0 13 -5 3 -5 21 -6
38 -2 18 4 44 5 58 4 35 -5 122 -3 131 3 4 2 10 0 13 -5 3 -5 21 -6 38 -2 18
4 44 5 58 4 35 -5 122 -3 131 3 4 2 10 0 13 -5 3 -5 21 -6 38 -2 18 4 44 5 58
4 35 -5 122 -3 131 3 4 2 10 0 13 -5 3 -5 21 -6 38 -2 18 4 44 5 58 4 29 -4
79 -4 201 1 71 2 98 8 151 33 73 34 147 102 180 166 24 46 23 43 38 107 7 31
10 660 8 1990 l-3 1945 -33 67 c-50 102 -153 188 -256 215 -19 5 -3403 12
-3409 7z"/>
</g>
</svg>
