<?xml version="1.0" standalone="no"?>
<!DOCTYPE svg PUBLIC "-//W3C//DTD SVG 20010904//EN"
 "http://www.w3.org/TR/2001/REC-SVG-20010904/DTD/svg10.dtd">
<svg version="1.0" xmlns="http://www.w3.org/2000/svg"
 width="560.000000pt" height="560.000000pt" viewBox="0 0 560.000000 560.000000"
 preserveAspectRatio="xMidYMid meet">
<metadata>
Created by potrace 1.14, written by Peter Selinger 2001-2017
</metadata>
<g transform="translate(0.000000,560.000000) scale(0.100000,-0.100000)"
fill="#000000" stroke="none">
<path d="M1117 5064 c-1 -1 -16 -4 -34 -7 -125 -20 -270 -159 -300 -289 -4
-18 -8 -915 -8 -1994 l0 -1960 38 -76 c57 -117 152 -192 275 -218 31 -7 634
-9 1747 -8 l1700 3 56 23 c66 28 158 107 192 165 41 70 61 157 57 247 -1 25
-1 52 -1 60 1 8 1 49 1 90 -1 41 -1 80 -1 85 0 19 0 120 1 140 0 11 0 54 0 95
-1 41 -1 80 -1 85 0 19 0 120 1 140 0 11 0 54 0 95 -1 41 -1 80 -1 85 0 19 0
120 1 140 0 11 0 54 0 95 -1 41 -1 80 -1 85 0 19 0 120 1 140 0 11 0 54 0 95
-1 41 -1 80 -1 85 0 19 0 120 1 140 0 11 0 54 0 95 -1 41 -1 80 -1 85 0 19 0
120 1 140 0 11 0 54 0 95 -1 41 -1 80 -1 85 0 19 0 120 1 140 0 11 0 54 0 95
-1 41 -1 80 -1 85 0 19 0 120 1 140 0 11 0 54 0 95 -1 41 -1 80 -1 85 0 19 0
120 1 140 0 11 0 54 0 95 -1 41 -1 80 -1 85 0 19 0 120 1 140 0 11 0 54 0 95
-1 41 -1 80 -1 85 0 17 0 119 1 140 2 141 0 177 -14 251 -9 44 -59 128 -104
173 -40 40 -123 91 -149 93 -4 0 -19 5 -33 11 -17 8 -535 11 -1723 12 -933 1
-1698 0 -1700 -1z"/>
</g>
</svg>
