<?xml version="1.0" encoding="utf-8"?>
<!-- Generator: Adobe Illustrator 16.0.0, SVG Export Plug-In . SVG Version: 6.00 Build 0)  -->
<!DOCTYPE svg PUBLIC "-//W3C//DTD SVG 1.1//EN" "http://www.w3.org/Graphics/SVG/1.1/DTD/svg11.dtd">
<svg version="1.1" xmlns="http://www.w3.org/2000/svg" xmlns:xlink="http://www.w3.org/1999/xlink" x="0px" y="0px" width="125px"
	 height="140px" viewBox="0 0 125 140" enable-background="new 0 0 125 140" xml:space="preserve">
<g id="Layer_1">
</g>
<g id="on_x5F_logo_x5F_deckl" display="none">
	<g id="Layer_3" display="inline">
		<circle fill="#B5D88E" cx="62.919" cy="69.46" r="62.081"/>
	</g>
	<g id="Layer_3_copy" display="inline">
		<circle fill="#FDF495" cx="62.919" cy="69.46" r="55.872"/>
	</g>
	<g id="Layer_4">
		<rect x="16.948" y="45.289" display="inline" fill="none" width="92.18" height="48.578"/>
		<text transform="matrix(1 0 0 1 18.4131 63.1387)" display="inline"><tspan x="0" y="0" stroke="#080607" stroke-miterlimit="10" font-family="'RubikMonoOne-Regular'" font-size="21">onDec</tspan><tspan x="35.7" y="25.2" stroke="#080607" stroke-miterlimit="10" font-family="'RubikMonoOne-Regular'" font-size="21">k</tspan></text>
	</g>
	<g id="Layer_7" display="inline">
		<rect x="13.63" y="43.63" fill="none" width="97.393" height="49.29"/>
		<text transform="matrix(1 0 0 1.36 13.8774 82.7803)" font-family="'RubikMonoOne-Regular'" font-size="19">On</text>
		<text transform="matrix(1 0 0 2.34 46.1772 82.7803)" font-family="'RubikMonoOne-Regular'" font-size="19">D</text>
		<text transform="matrix(1 0 0 1.36 62.3271 82.7803)" font-family="'RubikMonoOne-Regular'" font-size="19">eck</text>
	</g>
</g>
<g id="Layer_5" display="none">
</g>
<g id="Layer_8_copy" display="none">
	<path display="inline" opacity="0.3" fill="#070806" d="M115.737,122.441c0,5.369-4.353,9.721-9.721,9.721H24.208
		c-5.368,0-9.72-4.352-9.72-9.721V28.482c0-5.368,4.352-9.72,9.72-9.72h81.809c5.368,0,9.721,4.352,9.721,9.72V122.441z"/>
</g>
<g id="Layer_8" display="none">
	<linearGradient id="SVGID_1_" gradientUnits="userSpaceOnUse" x1="62.6372" y1="-14.3574" x2="62.6372" y2="146.0304">
		<stop  offset="0" style="stop-color:#D7DF23"/>
		<stop  offset="0.6452" style="stop-color:#FBB040"/>
		<stop  offset="0.9731" style="stop-color:#9E1F63"/>
	</linearGradient>
	<path display="inline" fill="url(#SVGID_1_)" d="M113.262,117.267c0,5.368-4.352,9.721-9.719,9.721h-81.81
		c-5.368,0-9.72-4.353-9.72-9.721V23.307c0-5.368,4.352-9.72,9.72-9.72h81.81c5.367,0,9.719,4.352,9.719,9.72V117.267z"/>
</g>
<g id="Layer_9" display="none">
	<rect x="14.487" y="23.487" display="inline" fill="none" width="97.2" height="97.2"/>
	
		<text transform="matrix(1 0 0 2.25 15.46 119.7422)" display="inline" fill="#FFFFFF" font-family="'CooperBlackStd'" font-size="24.3">FurnIt!</text>
</g>
<g id="Layer_10" display="none">
	<path display="inline" opacity="0.4" fill="none" stroke="#FFFFFF" stroke-miterlimit="10" d="M90,51c0,6.627-5.373,12-12,12H48
		c-6.627,0-12-5.373-12-12V39c0-6.627,5.373-12,12-12h30c6.627,0,12,5.373,12,12V51z"/>
	<path display="inline" opacity="0.4" fill="none" stroke="#FFFFFF" stroke-miterlimit="10" d="M45,54c0,4.971-4.029,9-9,9l0,0
		c-4.971,0-9-4.029-9-9v-9c0-4.971,4.029-9,9-9l0,0c4.971,0,9,4.029,9,9V54z"/>
	<path display="inline" opacity="0.4" fill="none" stroke="#FFFFFF" stroke-miterlimit="10" d="M99,54c0,4.971-4.029,9-9,9l0,0
		c-4.971,0-9-4.029-9-9v-9c0-4.971,4.029-9,9-9l0,0c4.971,0,9,4.029,9,9V54z"/>
</g>
<g id="Layer_12" display="none">
	<polygon display="inline" fill="none" stroke="#FFFFFF" stroke-miterlimit="10" points="63,45 54,45 45,63 72,63 	"/>
</g>
<g id="Layer_13" display="none">
	<line display="inline" fill="#FFFFFF" x1="30.688" y1="23.487" x2="30.688" y2="72.088"/>
</g>
<g id="Layer_8_copy_3" display="none">
	<path display="inline" opacity="0.3" fill="#070806" d="M115.737,122.441c0,5.369-4.353,9.721-9.721,9.721H24.208
		c-5.368,0-9.72-4.352-9.72-9.721V28.482c0-5.368,4.352-9.72,9.72-9.72h81.809c5.368,0,9.721,4.352,9.721,9.72V122.441z"/>
</g>
<g id="Portfolio-template-icon" display="none">
	<linearGradient id="SVGID_2_" gradientUnits="userSpaceOnUse" x1="62.6372" y1="-14.3574" x2="62.6372" y2="146.0304">
		<stop  offset="0" style="stop-color:#D7DF23"/>
		<stop  offset="0.6452" style="stop-color:#FBB040"/>
		<stop  offset="0.9731" style="stop-color:#9E1F63"/>
	</linearGradient>
	<path display="inline" fill="url(#SVGID_2_)" d="M113.262,117.267c0,5.368-4.352,9.721-9.719,9.721h-81.81
		c-5.368,0-9.72-4.353-9.72-9.721V23.307c0-5.368,4.352-9.72,9.72-9.72h81.81c5.367,0,9.719,4.352,9.719,9.72V117.267z"/>
</g>
<g id="Layer_40" display="none">
	<g id="Layer_8_copy_7" display="inline">
		<path fill="#60C7D0" d="M113.262,117.267c0,5.368-4.352,9.721-9.719,9.721h-81.81c-5.368,0-9.72-4.353-9.72-9.721V23.307
			c0-5.368,4.352-9.72,9.72-9.72h81.81c5.367,0,9.719,4.352,9.719,9.72V117.267z"/>
	</g>
	<g id="Layer_37">
		<circle display="inline" fill="none" stroke="#D3D3D3" stroke-width="2" stroke-miterlimit="10" cx="63" cy="108" r="54"/>
		<circle display="inline" fill="none" stroke="#D3D3D3" stroke-width="2" stroke-miterlimit="10" cx="63" cy="117" r="54"/>
		<circle display="inline" fill="none" stroke="#D3D3D3" stroke-width="2" stroke-miterlimit="10" cx="63" cy="135" r="54"/>
		<circle display="inline" fill="none" stroke="#D3D3D3" stroke-width="2" stroke-miterlimit="10" cx="63" cy="126" r="54"/>
		<circle display="inline" fill="none" stroke="#D3D3D3" stroke-width="2" stroke-miterlimit="10" cx="63" cy="144" r="54"/>
		<circle display="inline" fill="none" stroke="#D3D3D3" stroke-width="2" stroke-miterlimit="10" cx="63" cy="153" r="54"/>
	</g>
	<g id="Layer_38" display="inline">
		<circle fill="#0A0B0C" cx="63" cy="72" r="45"/>
		<circle fill="#E22C2B" cx="63" cy="72" r="9"/>
	</g>
	<g id="Layer_39" display="inline">
		<line fill="none" stroke="#E22C2B" stroke-width="4" stroke-miterlimit="10" x1="18" y1="72" x2="63" y2="72"/>
	</g>
</g>
<g id="ClearstarLogo" display="none">
	<path display="inline" fill="#282C34" d="M113.262,117.267c0,5.368-4.352,9.721-9.719,9.721h-81.81c-5.368,0-9.72-4.353-9.72-9.721
		V23.307c0-5.368,4.352-9.72,9.72-9.72h81.81c5.367,0,9.719,4.352,9.719,9.72V117.267z"/>
	<g id="Layer_31">
		<polygon display="inline" fill="#EDE831" points="53.821,83.402 67.125,76.126 74.402,62.821 81.68,76.126 94.984,83.402 
			81.679,90.68 74.402,103.983 67.125,90.68 		"/>
	</g>
	<g id="Layer_31_copy" display="inline">
		<polygon fill="none" stroke="#EDE831" stroke-width="1.59" stroke-miterlimit="10" points="32.35,41.538 64.539,50.864 
			96.678,41.352 87.352,73.545 96.864,105.681 64.672,96.354 32.537,105.866 41.86,73.675 		"/>
	</g>
	<g id="Layer_31_copy_3" display="inline">
		<polygon fill="#EDE831" points="41.4,50.537 64.559,57.247 87.68,50.402 80.97,73.563 87.814,96.683 64.653,89.973 41.535,96.815 
			48.243,73.657 		"/>
	</g>
	<g id="Layer_31_copy_2" display="inline">
		<polygon fill="none" stroke="#EDE831" stroke-width="1.59" stroke-miterlimit="10" points="32.35,41.538 64.539,50.864 
			96.678,41.352 87.352,73.545 96.864,105.681 64.672,96.354 32.537,105.866 41.86,73.675 		"/>
	</g>
	<g id="Layer_32" display="inline">
	</g>
</g>
<g id="ClearstarLogo_copy" display="none">
	<path display="inline" fill="#282C34" d="M113.262,117.267c0,5.368-4.352,9.721-9.719,9.721h-81.81c-5.368,0-9.72-4.353-9.72-9.721
		V23.307c0-5.368,4.352-9.72,9.72-9.72h81.81c5.367,0,9.719,4.352,9.719,9.72V117.267z"/>
	<g id="Layer_31_copy_4_3_">
		<polygon display="inline" fill="#EDE831" points="53.821,83.402 67.125,76.126 74.402,62.821 81.68,76.126 94.984,83.402 
			81.679,90.68 74.402,103.983 67.125,90.68 		"/>
	</g>
	<g id="Layer_31_copy_4_2_" display="inline">
		<polygon fill="none" stroke="#EDE831" stroke-width="1.59" stroke-miterlimit="10" points="32.35,41.538 64.539,50.864 
			96.678,41.352 87.352,73.545 96.864,105.681 64.672,96.354 32.537,105.866 41.86,73.675 		"/>
	</g>
	<g id="Layer_31_copy_4_1_" display="inline">
		<polygon fill="#FAA41A" points="41.4,50.537 64.559,57.247 87.68,50.402 80.97,73.563 87.814,96.683 64.653,89.973 41.535,96.815 
			48.243,73.657 		"/>
	</g>
	<g id="Layer_31_copy_4" display="inline">
		<polygon fill="none" stroke="#FAA41A" stroke-width="1.59" stroke-miterlimit="10" points="32.35,41.538 64.539,50.864 
			96.678,41.352 87.352,73.545 96.864,105.681 64.672,96.354 32.537,105.866 41.86,73.675 		"/>
	</g>
	<g id="Layer_32_copy" display="inline">
	</g>
</g>
<g id="AIgame" display="none">
	<path display="inline" fill="#A2CF6E" d="M113.262,117.267c0,5.368-4.352,9.721-9.719,9.721h-81.81c-5.368,0-9.72-4.353-9.72-9.721
		V23.307c0-5.368,4.352-9.72,9.72-9.72h81.81c5.367,0,9.719,4.352,9.719,9.72V117.267z"/>
	<g id="Layer_32_copy_6" display="inline">
	</g>
	<linearGradient id="SVGID_3_" gradientUnits="userSpaceOnUse" x1="17.7271" y1="73.749" x2="108" y2="73.749">
		<stop  offset="0" style="stop-color:#FFF33B"/>
		<stop  offset="0.0595" style="stop-color:#FFE029"/>
		<stop  offset="0.1303" style="stop-color:#FFD218"/>
		<stop  offset="0.2032" style="stop-color:#FEC90F"/>
		<stop  offset="0.2809" style="stop-color:#FDC70C"/>
		<stop  offset="0.6685" style="stop-color:#F3903F"/>
		<stop  offset="0.8876" style="stop-color:#ED683C"/>
		<stop  offset="1" style="stop-color:#E93E3A"/>
	</linearGradient>
	<polygon display="inline" fill="url(#SVGID_3_)" points="103.275,93.956 82.514,84.896 100.941,98.068 81.24,86.89 98.191,101.917 
		79.768,88.737 95.055,105.455 78.107,90.424 91.563,108.646 76.281,91.925 87.76,111.453 74.307,93.228 83.682,113.85 
		72.209,94.318 79.375,115.806 70.008,95.182 74.889,117.301 67.729,95.81 70.27,118.32 65.396,96.197 65.57,118.851 63.035,96.341 
		60.841,118.886 60.674,96.233 56.135,118.428 58.335,95.884 51.502,117.479 56.046,95.287 46.993,116.051 53.833,94.458 
		42.659,114.161 51.717,93.398 38.545,111.829 49.725,92.127 34.697,109.076 47.875,90.652 31.16,105.939 46.191,88.995 
		27.969,102.448 44.69,87.167 25.159,98.645 43.385,85.192 22.764,94.568 42.297,83.094 20.807,90.261 41.432,80.894 19.311,85.775 
		40.803,78.615 18.293,81.155 40.416,76.281 17.764,76.458 40.275,73.92 17.727,71.728 40.38,71.56 18.186,67.021 40.732,69.22 
		19.135,62.388 41.327,66.931 20.561,57.878 42.158,64.72 22.453,53.544 43.215,62.604 24.787,49.431 44.488,60.61 27.537,45.584 
		45.961,58.762 30.673,42.044 47.622,57.076 34.165,38.854 49.448,55.574 37.97,36.046 51.421,54.272 42.047,33.649 53.518,53.183 
		46.352,31.692 55.72,52.317 50.84,30.198 58,51.688 55.458,29.179 60.332,51.301 60.158,28.647 62.693,51.158 64.887,28.612 
		65.055,51.266 69.592,29.071 67.393,51.617 74.227,30.021 69.682,52.213 78.734,31.447 71.895,53.041 83.07,33.338 74.012,54.101 
		87.184,35.67 76.004,55.372 91.031,38.422 77.854,56.848 94.568,41.559 79.537,58.506 97.76,45.05 81.039,60.331 100.57,48.854 
		82.342,62.308 102.965,52.933 83.432,64.405 104.92,57.237 84.297,66.606 106.418,61.724 84.924,68.886 107.436,66.343 
		85.313,71.217 107.965,71.043 85.455,73.578 108,75.771 85.348,75.939 107.543,80.478 84.996,78.279 106.596,85.111 84.402,80.568 
		105.168,89.62 83.57,82.78 	"/>
</g>
<g id="AIgame_copy" display="none">
	<path display="inline" fill="#087E60" d="M113.262,117.267c0,5.368-4.352,9.721-9.719,9.721h-81.81c-5.368,0-9.72-4.353-9.72-9.721
		V23.307c0-5.368,4.352-9.72,9.72-9.72h81.81c5.367,0,9.719,4.352,9.719,9.72V117.267z"/>
	<g id="Layer_61" display="inline">
		<rect x="27" y="108" fill="#FFFFFF" width="18" height="9"/>
		<rect x="54" y="108" fill="#FFFFFF" width="18" height="9"/>
		<rect x="54" y="72" fill="#FFFFFF" width="18" height="9"/>
		<rect x="54" y="90" fill="#FFFFFF" width="18" height="9"/>
		<rect x="81" y="108" fill="#FFFFFF" width="18" height="9"/>
		<rect x="81" y="72" fill="#FFFFFF" width="18" height="9"/>
		<rect x="81" y="54" fill="#FFFFFF" width="18" height="9"/>
		<rect x="81" y="90" fill="#FFFFFF" width="18" height="9"/>
	</g>
	<g id="Layer_32_copy_7" display="inline">
	</g>
</g>
<g id="PopViz">
	<path fill="#C6C6C5" d="M113.262,117.267c0,5.368-4.352,9.721-9.719,9.721h-81.81c-5.368,0-9.72-4.353-9.72-9.721V23.307
		c0-5.368,4.352-9.72,9.72-9.72h81.81c5.367,0,9.719,4.352,9.719,9.72V117.267z"/>
	<g id="Layer_32_copy_5">
		<circle fill="#3B609B" cx="33.803" cy="59.13" r="11.197"/>
		<circle fill="#09877D" cx="63" cy="59.13" r="11.197"/>
		<circle fill="#9E1C3D" cx="92.197" cy="59.13" r="11.197"/>
		<path fill="#3B609B" d="M51.66,117H20.34c0-17.296,7.012-39.149,15.66-39.149C44.648,77.851,51.66,99.704,51.66,117z"/>
		<path fill="#09877D" d="M78.66,117H47.34c0-17.296,7.012-39.149,15.66-39.149C71.647,77.851,78.66,99.704,78.66,117z"/>
		<path fill="#9E1C3D" d="M105.66,117H74.34c0-17.296,7.013-39.149,15.66-39.149C98.646,77.851,105.66,99.704,105.66,117z"/>
		<line fill="none" x1="-27" y1="81" x2="-63" y2="81"/>
	</g>
	<g id="Layer_56">
	</g>
	<line fill="none" x1="54" y1="117" x2="18" y2="117"/>
	<line fill="none" x1="81" y1="117" x2="45" y2="117"/>
</g>
<g id="CarTraced" display="none">
	<path display="inline" fill="#FAF289" d="M113.262,117.267c0,5.368-4.352,9.721-9.719,9.721h-81.81c-5.368,0-9.72-4.353-9.72-9.721
		V23.307c0-5.368,4.352-9.72,9.72-9.72h81.81c5.367,0,9.719,4.352,9.719,9.72V117.267z"/>
	<g id="Layer_32_copy_4" display="inline">
		<rect x="18" y="63" fill="none" width="90" height="36"/>
		
			<text transform="matrix(1 0 0 1 18.7207 82.2285)" stroke="#000000" stroke-miterlimit="10" font-family="'Lobster-Regular'" font-size="22">CarTraced</text>
	</g>
	<g id="Layer_53" display="inline">
	</g>
</g>
<g id="Winespotter" display="none">
	<path display="inline" fill="#5B297B" d="M113.262,117.267c0,5.368-4.352,9.721-9.719,9.721h-81.81c-5.368,0-9.72-4.353-9.72-9.721
		V23.307c0-5.368,4.352-9.72,9.72-9.72h81.81c5.367,0,9.719,4.352,9.719,9.72V117.267z"/>
	<g id="Layer_32_copy_2" display="inline">
	</g>
	<g id="Layer_32_copy_3" display="inline">
	</g>
	<circle display="inline" fill="none" stroke="#FFFFFF" stroke-width="3" stroke-miterlimit="10" cx="63" cy="72" r="45"/>
	<circle display="inline" fill="none" stroke="#FFFFFF" stroke-miterlimit="10" cx="63" cy="72" r="36"/>
	<circle display="inline" fill="none" stroke="#FFFFFF" stroke-miterlimit="10" cx="63" cy="72" r="27"/>
	<g id="Layer_50" display="inline">
	</g>
	<polygon display="inline" fill="#FFFFFF" points="50.4,59.4 75.6,59.4 63,72 	"/>
	<polygon display="inline" fill="#FFFFFF" points="72,90 54,90 63,81 	"/>
	<line display="inline" fill="none" stroke="#FFFFFF" stroke-width="3" stroke-miterlimit="10" x1="63" y1="63" x2="63" y2="90"/>
</g>
<g id="Layer_8_copy_6" display="none">
	<path display="inline" fill="#282C34" d="M113.262,117.267c0,5.368-4.352,9.721-9.719,9.721h-81.81c-5.368,0-9.72-4.353-9.72-9.721
		V23.307c0-5.368,4.352-9.72,9.72-9.72h81.81c5.367,0,9.719,4.352,9.719,9.72V117.267z"/>
	<path display="inline" fill="#D71F28" d="M113.262,117.267c0,5.368-4.352,9.721-9.719,9.721h-81.81c-5.368,0-9.72-4.353-9.72-9.721
		V23.307c0-5.368,4.352-9.72,9.72-9.72h81.81c5.367,0,9.719,4.352,9.719,9.72V117.267z"/>
	<g id="Layer_27" display="inline">
		<path fill="none" stroke="#FFFFFF" stroke-width="6" stroke-miterlimit="10" d="M63,117c-3.08,0-6.09-0.31-9-0.9
			c-3.13-0.64-6.14-1.6-9-2.85c-3.21-1.4-6.23-3.17-9-5.24V108h-0.01c-3.4-2.56-6.431-5.59-8.99-8.99V99h-0.01
			c-2.07-2.77-3.84-5.79-5.24-9c-1.25-2.86-2.21-5.87-2.85-9c-0.591-2.91-0.9-5.92-0.9-9s0.31-6.09,0.9-9c0.64-3.13,1.6-6.14,2.85-9
			c1.4-3.21,3.17-6.23,5.24-9H27v-0.01c2.56-3.4,5.59-6.43,8.99-8.99H36v-0.01c2.77-2.07,5.79-3.84,9-5.24
			c2.86-1.25,5.87-2.21,9-2.85c2.91-0.59,5.92-0.9,9-0.9s6.09,0.31,9,0.9c3.13,0.64,6.141,1.6,9,2.85c3.21,1.4,6.23,3.17,9,5.24V36
			h0.01c3.4,2.56,6.43,5.59,8.99,8.99V45h0.01c2.07,2.77,3.84,5.79,5.24,9c1.25,2.86,2.21,5.87,2.85,9c0.59,2.91,0.9,5.92,0.9,9
			s-0.311,6.09-0.9,9c-0.64,3.13-1.6,6.14-2.85,9c-1.4,3.21-3.17,6.23-5.24,9H99v0.01c-2.561,3.4-5.59,6.431-8.99,8.99H90v0.01
			c-2.77,2.07-5.79,3.84-9,5.24c-2.859,1.25-5.87,2.21-9,2.85C69.09,116.69,66.08,117,63,117z"/>
	</g>
	<g id="Layer_28" display="inline">
		<line fill="none" stroke="#FFFFFF" stroke-width="0.75" stroke-miterlimit="10" x1="108" y1="72" x2="18" y2="72"/>
		<polyline fill="none" stroke="#FFFFFF" stroke-width="0.75" stroke-miterlimit="10" points="18.9,81 27,81 36,81 45,81 54,81 
			63,81 72,81 81,81 90,81 99,81 107.1,81 108,81 		"/>
		<polyline fill="none" stroke="#FFFFFF" stroke-width="0.75" stroke-miterlimit="10" points="104.25,90 99,90 90,90 81,90 72,90 
			63,90 54,90 45,90 36,90 27,90 21.75,90 		"/>
		<polyline fill="none" stroke="#FFFFFF" stroke-width="0.75" stroke-miterlimit="10" points="99.01,99 99,99 90,99 81,99 72,99 
			63,99 54,99 45,99 36,99 27,99 26.99,99 		"/>
		<polyline fill="none" stroke="#FFFFFF" stroke-width="0.75" stroke-miterlimit="10" points="90.01,108 90,108 81,108 72,108 
			63,108 54,108 45,108 36,108 35.99,108 		"/>
		<line fill="none" stroke="#FFFFFF" stroke-width="0.75" stroke-miterlimit="10" x1="108" y1="63" x2="18" y2="63"/>
		<polyline fill="none" stroke="#FFFFFF" stroke-width="0.75" stroke-miterlimit="10" points="104.25,54 99,54 90,54 81,54 72,54 
			63,54 54,54 45,54 36,54 27,54 21.75,54 		"/>
		<polyline fill="none" stroke="#FFFFFF" stroke-width="0.75" stroke-miterlimit="10" points="99.01,45 99,45 90,45 81,45 72,45 
			63,45 54,45 45,45 36,45 27,45 26.99,45 		"/>
		<polyline fill="none" stroke="#FFFFFF" stroke-width="0.75" stroke-miterlimit="10" points="35.99,36 36,36 45,36 54,36 63,36 
			72,36 81,36 90,36 90.01,36 		"/>
		<line fill="none" stroke="#FFFFFF" stroke-width="0.75" stroke-miterlimit="10" x1="63" y1="117" x2="63" y2="27"/>
		<line fill="none" stroke="#FFFFFF" stroke-width="0.75" stroke-miterlimit="10" x1="54" y1="117" x2="54" y2="27"/>
		<polyline fill="none" stroke="#FFFFFF" stroke-width="0.75" stroke-miterlimit="10" points="45,113.25 45,108 45,99 45,90 45,81 
			45,72 45,63 45,54 45,45 45,36 45,30.75 		"/>
		<polyline fill="none" stroke="#FFFFFF" stroke-width="0.75" stroke-miterlimit="10" points="36,108.01 36,108 36,99 36,90 36,81 
			36,72 36,63 36,54 36,45 36,36 36,35.99 		"/>
		<polyline fill="none" stroke="#FFFFFF" stroke-width="0.75" stroke-miterlimit="10" points="27,99.01 27,99 27,90 27,81 27,72 
			27,63 27,54 27,45 27,44.99 		"/>
		<line fill="none" stroke="#FFFFFF" stroke-width="0.75" stroke-miterlimit="10" x1="72" y1="117" x2="72" y2="27"/>
		<polyline fill="none" stroke="#FFFFFF" stroke-width="0.75" stroke-miterlimit="10" points="81,113.25 81,108 81,99 81,90 81,81 
			81,72 81,63 81,54 81,45 81,36 81,30.75 		"/>
		<polyline fill="none" stroke="#FFFFFF" stroke-width="0.75" stroke-miterlimit="10" points="90,108.01 90,108 90,99 90,90 90,81 
			90,72 90,63 90,54 90,45 90,36 90,35.99 		"/>
		<polyline fill="none" stroke="#FFFFFF" stroke-width="0.75" stroke-miterlimit="10" points="99,44.99 99,45 99,54 99,63 99,72 
			99,81 99,90 99,99 99,99.01 		"/>
	</g>
	<g id="Layer_29" display="inline">
		<circle fill="#FFFFFF" cx="63" cy="72" r="18.18"/>
		<polygon fill="#FFFFFF" points="54,72 108,40.823 108,103.177 		"/>
	</g>
</g>
<g id="litereport" display="none">
	<path display="inline" fill="#0E3C5E" d="M113.262,117.267c0,5.368-4.352,9.721-9.719,9.721h-81.81c-5.368,0-9.72-4.353-9.72-9.721
		V23.307c0-5.368,4.352-9.72,9.72-9.72h81.81c5.367,0,9.719,4.352,9.719,9.72V117.267z"/>
	<g id="Layer_25" display="inline">
		
			<image overflow="visible" width="292" height="252" xlink:href="C:\Users\Marco\Desktop\Update-Actual-2020\public_html\img\litereport-icon.png"  transform="matrix(0.24 0 0 0.24 28.9292 45)">
		</image>
	</g>
</g>
<g id="Litehause-min" display="none">
	<path display="inline" fill="#FBE11B" d="M113.262,117.267c0,5.368-4.352,9.721-9.719,9.721h-81.81c-5.368,0-9.72-4.353-9.72-9.721
		V23.307c0-5.368,4.352-9.72,9.72-9.72h81.81c5.367,0,9.719,4.352,9.719,9.72V117.267z"/>
	<g id="Layer_22" display="inline">
		<path fill="#4F4F4F" d="M91.316,62.468c-0.689,13.524-14.479,34.546-26.705,34.546c-12.228,0-28.257-20.332-28.602-33.599
			c-0.45-17.347,14.456-28.952,27.568-29.118C77.188,34.125,92.123,46.663,91.316,62.468z"/>
		<path fill="#4F4F4F" d="M77.361,110.88c0,3.38-2.74,6.12-6.121,6.12H56.086c-3.38,0-6.12-2.74-6.12-6.12v-2.062
			c0-3.379,2.74-6.119,6.12-6.119H71.24c3.381,0,6.121,2.74,6.121,6.119V110.88z"/>
		<polygon fill="#4F4F4F" points="77.361,99.77 49.277,99.77 43.418,79.267 85.115,79.094 		"/>
		<rect x="55.697" y="79.402" fill="#FBE11B" width="16.317" height="15.125"/>
		<polygon fill="#FBE11B" points="63.922,61.035 69.176,70.135 74.428,79.232 63.922,79.232 53.416,79.232 58.669,70.135 		"/>
		<circle fill="#FFFFFF" cx="47.471" cy="47.909" r="3.274"/>
	</g>
	<g id="Layer_23" display="inline">
	</g>
</g>
<g id="Layer_8_copy_5" display="none">
	<path display="inline" opacity="0.3" fill="#070806" d="M115.737,122.441c0,5.369-4.353,9.721-9.721,9.721H24.208
		c-5.368,0-9.72-4.352-9.72-9.721V28.482c0-5.368,4.352-9.72,9.72-9.72h81.809c5.368,0,9.721,4.352,9.721,9.72V122.441z"/>
</g>
<g id="OnDeck_bundle" display="none">
	<g id="Layer_8_copy_4">
		<path display="inline" fill="#81C145" d="M113.262,117.267c0,5.368-4.352,9.721-9.719,9.721h-81.81
			c-5.368,0-9.72-4.353-9.72-9.721V23.307c0-5.368,4.352-9.72,9.72-9.72h81.81c5.367,0,9.719,4.352,9.719,9.72V117.267z"/>
	</g>
	<g id="Layer_17">
		
			<rect x="33.598" y="33.385" display="inline" fill="#FFFFFF" stroke="#000000" stroke-width="0.45" stroke-miterlimit="10" width="56.402" height="83.615"/>
		
			<rect x="38.462" y="38.858" display="inline" fill="#F3EB88" stroke="#000000" stroke-width="0.225" stroke-miterlimit="10" width="46.52" height="73.125"/>
		<rect x="42.719" y="63.03" display="inline" fill="none" width="38.767" height="23.563"/>
		<text transform="matrix(1 0 0 1 43.0122 82.9834)" display="inline" font-family="'Muli-Black'" font-size="10.35">onDeck</text>
	</g>
	<g id="Layer_17_copy">
		
			<rect x="23.29" y="56.615" display="inline" fill="#FFFFFF" stroke="#000000" stroke-width="0.3155" stroke-miterlimit="10" width="38.401" height="60.385"/>
		
			<rect x="26.602" y="60.567" display="inline" fill="#F3EB88" stroke="#000000" stroke-width="0.1578" stroke-miterlimit="10" width="31.673" height="52.81"/>
		
			<rect x="41.29" y="38.615" display="inline" fill="#FFFFFF" stroke="#000000" stroke-width="0.3155" stroke-miterlimit="10" width="38.402" height="60.385"/>
		
			<rect x="44.602" y="42.567" display="inline" fill="#F3EB88" stroke="#000000" stroke-width="0.1578" stroke-miterlimit="10" width="31.674" height="52.81"/>
		
			<rect x="60.598" y="19.307" display="inline" fill="#FFFFFF" stroke="#000000" stroke-width="0.3155" stroke-miterlimit="10" width="38.402" height="60.385"/>
		
			<rect x="63.91" y="23.26" display="inline" fill="#F3EB88" stroke="#000000" stroke-width="0.1578" stroke-miterlimit="10" width="31.674" height="52.81"/>
	</g>
</g>
</svg>
